<svg version="1.1" id="Layer_1" xmlns="http://www.w3.org/2000/svg" xmlns:xlink="http://www.w3.org/1999/xlink" x="0px" y="0px"
	 width="100%" viewBox="0 0 128 128" enable-background="new 0 0 128 128" xml:space="preserve">
<path fill="#999EB1" opacity="1.000000" stroke="none" 
	d="
M129.000000,56.000000 
	C129.000000,58.370556 129.000000,60.741116 128.774811,63.221642 
	C123.650185,67.770569 118.653748,72.107849 113.871414,76.669594 
	C103.804573,86.272118 93.921112,96.068237 83.769699,105.579247 
	C82.313835,106.943268 79.013916,108.343513 77.936874,107.637589 
	C76.321564,106.578865 75.236748,103.705795 75.126144,101.542931 
	C74.781105,94.795815 74.999573,88.019890 74.999573,80.641922 
	C68.056465,81.474541 61.698227,81.930450 55.456932,83.042618 
	C36.282440,86.459427 21.683010,97.013702 11.149931,113.062645 
	C8.424947,117.214615 6.232569,120.096237 1.000000,118.000000 
	C1.000000,111.312355 1.000000,104.624710 1.293783,97.808670 
	C2.055584,96.869438 2.736190,96.113220 2.960567,95.239799 
	C8.745271,72.722168 22.418600,56.525520 42.765797,45.788067 
	C52.696480,40.547535 63.533913,38.451591 74.999573,37.712933 
	C74.999573,31.173582 74.728745,24.857229 75.136856,18.585056 
	C75.293549,16.176968 76.998299,13.869609 77.997650,11.516349 
	C80.360573,12.536685 83.256065,12.999094 85.002083,14.665723 
	C98.831551,27.866396 112.431183,41.307659 126.151245,54.623680 
	C126.869507,55.320789 128.040024,55.551929 129.000000,56.000000 
z"/>
<path fill="#000000" opacity="1.000000" stroke="none" 
	d="
M129.000000,55.531342 
	C128.040024,55.551929 126.869507,55.320789 126.151245,54.623680 
	C112.431183,41.307659 98.831551,27.866396 85.002083,14.665723 
	C83.256065,12.999094 80.360573,12.536685 77.997650,11.516349 
	C76.998299,13.869609 75.293549,16.176968 75.136856,18.585056 
	C74.728745,24.857229 74.999573,31.173582 74.999573,37.712933 
	C63.533913,38.451591 52.696480,40.547535 42.765797,45.788067 
	C22.418600,56.525520 8.745271,72.722168 2.960567,95.239799 
	C2.736190,96.113220 2.055584,96.869438 1.293783,97.340134 
	C1.000000,65.050240 1.000000,33.100483 1.000000,1.075362 
	C43.549328,1.075362 86.098816,1.075362 129.000000,1.075362 
	C129.000000,19.019369 129.000000,37.041027 129.000000,55.531342 
z"/>
<path fill="#000000" opacity="1.000000" stroke="none" 
	d="
M1.000000,118.482956 
	C6.232569,120.096237 8.424947,117.214615 11.149931,113.062645 
	C21.683010,97.013702 36.282440,86.459427 55.456932,83.042618 
	C61.698227,81.930450 68.056465,81.474541 74.999573,80.641922 
	C74.999573,88.019890 74.781105,94.795815 75.126144,101.542931 
	C75.236748,103.705795 76.321564,106.578865 77.936874,107.637589 
	C79.013916,108.343513 82.313835,106.943268 83.769699,105.579247 
	C93.921112,96.068237 103.804573,86.272118 113.871414,76.669594 
	C118.653748,72.107849 123.650185,67.770569 128.774811,63.665806 
	C129.000000,85.617058 129.000000,107.234123 129.000000,128.925598 
	C86.333412,128.925598 43.666725,128.925598 1.000000,128.925598 
	C1.000000,125.617310 1.000000,122.291611 1.000000,118.482956 
z"/>
</svg>