<svg version="1.1" id="Layer_1" xmlns="http://www.w3.org/2000/svg" xmlns:xlink="http://www.w3.org/1999/xlink" x="0px" y="0px"
	 width="100%" viewBox="0 0 64 64" enable-background="new 0 0 64 64" xml:space="preserve">
<path fill="#000000" opacity="1.000000" stroke="none" 
	d="
M1.000000,26.000017 
	C1.000000,17.333359 1.000000,9.166694 1.000000,1.000021 
	C22.333319,1.000014 43.666637,1.000014 64.999969,1.000007 
	C64.999977,22.333313 64.999977,43.666626 64.999985,64.999954 
	C43.666691,64.999969 22.333384,64.999969 1.000037,64.999985 
	C1.000000,52.166672 1.000000,39.333340 1.000000,26.000017 
M20.002729,29.997854 
	C20.002729,29.997854 20.075773,30.067747 20.007853,29.352230 
	C24.400318,24.663679 28.895924,20.064606 33.102970,15.215199 
	C34.003338,14.177359 33.857555,12.231945 34.193710,10.704630 
	C32.458542,10.965566 30.126770,10.598182 29.083994,11.588319 
	C21.726072,18.574818 14.304240,25.546810 7.556427,33.106831 
	C1.855002,39.494507 0.626928,48.780148 8.432345,56.042294 
	C14.015501,61.236855 24.849619,61.156849 30.390692,55.264061 
	C39.735409,45.326187 49.441837,35.709354 59.342663,26.323006 
	C63.220531,22.646639 64.413002,15.402176 60.040451,10.166969 
	C56.473766,5.896616 48.901344,3.862914 44.137814,8.345872 
	C37.883480,14.231822 31.709866,20.204439 25.401314,26.031275 
	C23.770866,27.537218 21.765989,28.637777 20.002729,29.997854 
z"/>
<path fill="#FFFFFF" opacity="1.000000" stroke="none" 
	d="
M19.933107,29.924551 
	C21.765989,28.637777 23.770866,27.537218 25.401314,26.031275 
	C31.709866,20.204439 37.883480,14.231822 44.137814,8.345872 
	C48.901344,3.862914 56.473766,5.896616 60.040451,10.166969 
	C64.413002,15.402176 63.220531,22.646639 59.342663,26.323006 
	C49.441837,35.709354 39.735409,45.326187 30.390692,55.264061 
	C24.849619,61.156849 14.015501,61.236855 8.432345,56.042294 
	C0.626928,48.780148 1.855002,39.494507 7.556427,33.106831 
	C14.304240,25.546810 21.726072,18.574818 29.083994,11.588319 
	C30.126770,10.598182 32.458542,10.965566 34.193710,10.704630 
	C33.857555,12.231945 34.003338,14.177359 33.102970,15.215199 
	C28.895924,20.064606 24.400318,24.663679 19.682953,29.679749 
	C15.978165,33.116325 12.240231,35.935211 9.379528,39.465038 
	C8.079481,41.069168 7.803362,44.239429 8.289629,46.426502 
	C10.310853,55.517292 20.271700,58.002014 27.247417,51.185604 
	C36.660389,41.987606 45.918259,32.629692 55.171345,23.269876 
	C58.693325,19.707273 58.751144,16.132933 55.619537,13.136892 
	C52.463745,10.117709 49.394123,10.196723 45.834610,13.703432 
	C38.476852,20.952042 31.159121,28.244501 23.996479,35.684093 
	C23.037033,36.680637 23.072744,38.635292 22.647621,40.146267 
	C24.279339,39.743835 26.368801,39.844940 27.462513,38.850685 
	C31.893064,34.823017 35.897781,30.325636 40.346657,26.320396 
	C41.341656,25.424618 43.497997,25.818821 45.119671,25.619131 
	C44.857460,27.134758 45.120457,29.135096 44.244469,30.084276 
	C39.843761,34.852676 35.228771,39.434193 30.520538,43.903851 
	C27.663511,46.616108 21.893991,46.811607 19.171480,44.624016 
	C16.717892,42.652500 16.188011,37.142300 18.078842,33.698490 
	C18.752722,32.471142 19.318167,31.184259 19.933107,29.924551 
z"/>
<path fill="#000000" opacity="1.000000" stroke="none" 
	d="
M19.967918,29.961203 
	C19.318167,31.184259 18.752722,32.471142 18.078842,33.698490 
	C16.188011,37.142300 16.717892,42.652500 19.171480,44.624016 
	C21.893991,46.811607 27.663511,46.616108 30.520538,43.903851 
	C35.228771,39.434193 39.843761,34.852676 44.244469,30.084276 
	C45.120457,29.135096 44.857460,27.134758 45.119671,25.619131 
	C43.497997,25.818821 41.341656,25.424618 40.346657,26.320396 
	C35.897781,30.325636 31.893064,34.823017 27.462513,38.850685 
	C26.368801,39.844940 24.279339,39.743835 22.647621,40.146267 
	C23.072744,38.635292 23.037033,36.680637 23.996479,35.684093 
	C31.159121,28.244501 38.476852,20.952042 45.834610,13.703432 
	C49.394123,10.196723 52.463745,10.117709 55.619537,13.136892 
	C58.751144,16.132933 58.693325,19.707273 55.171345,23.269876 
	C45.918259,32.629692 36.660389,41.987606 27.247417,51.185604 
	C20.271700,58.002014 10.310853,55.517292 8.289629,46.426502 
	C7.803362,44.239429 8.079481,41.069168 9.379528,39.465038 
	C12.240231,35.935211 15.978165,33.116325 19.716915,30.037508 
	C20.075773,30.067747 20.002729,29.997854 19.967918,29.961203 
z"/>
</svg>