<svg version="1.1" id="Layer_1" xmlns="http://www.w3.org/2000/svg" xmlns:xlink="http://www.w3.org/1999/xlink" x="0px" y="0px"
	 width="100%" viewBox="0 0 64 64" enable-background="new 0 0 64 64" xml:space="preserve">
<path fill="#000000" opacity="1.000000" stroke="none" 
	d="
M1.000000,25.000038 
	C1.000000,16.666723 1.000000,8.833391 1.000000,1.000045 
	C22.333311,1.000030 43.666622,1.000030 64.999954,1.000015 
	C64.999969,22.333305 64.999969,43.666611 64.999985,64.999939 
	C43.666698,64.999954 22.333395,64.999954 1.000047,64.999977 
	C1.000000,51.833340 1.000000,38.666683 1.000000,25.000038 
M18.563692,48.036949 
	C23.662666,50.384785 29.278975,49.141418 32.761642,46.281349 
	C40.892731,39.603863 47.942154,31.609253 54.893211,24.682697 
	C50.147598,19.900362 45.861946,15.581542 41.245220,10.929090 
	C34.371738,17.905035 26.901854,24.795557 20.318865,32.448933 
	C16.851519,36.480068 15.896360,41.984356 18.563692,48.036949 
M16.849529,14.000002 
	C21.820356,14.000002 26.791182,14.000002 31.716421,14.000002 
	C32.453793,10.614730 31.736996,8.847538 28.170650,8.964595 
	C23.678419,9.112043 19.173347,8.875148 14.681658,9.030641 
	C8.501615,9.244580 4.070684,13.401747 4.026286,19.079922 
	C3.937732,30.405186 3.941720,41.732067 4.027045,53.057384 
	C4.064278,57.999374 8.090811,61.944839 13.083682,61.976997 
	C24.409168,62.049938 35.735920,62.059723 47.061169,61.970203 
	C51.522308,61.934944 55.197567,59.727100 55.847538,55.344360 
	C56.782230,49.041737 56.820641,42.580524 56.788769,36.189266 
	C56.784248,35.282200 54.230824,34.387848 51.999962,32.925873 
	C51.999962,39.506077 52.057514,44.649498 51.983707,49.791031 
	C51.910461,54.893791 49.827431,56.985764 44.940910,56.994755 
	C35.280571,57.012531 25.620134,57.016068 15.959814,56.993443 
	C10.874292,56.981533 9.012627,55.047558 9.004214,49.810070 
	C8.989231,40.482838 9.238379,31.147095 8.907542,21.831589 
	C8.719368,16.533087 10.985871,14.268683 16.849529,14.000002 
M61.156567,9.719100 
	C56.288570,2.280322 50.577942,1.839655 44.210846,8.320903 
	C48.645748,12.811172 53.080093,17.300873 57.494072,21.769951 
	C61.735096,19.001408 62.678371,14.966682 61.156567,9.719100 
z"/>
<path fill="#FFFFFF" opacity="1.000000" stroke="none" 
	d="
M18.261406,47.733791 
	C15.896360,41.984356 16.851519,36.480068 20.318865,32.448933 
	C26.901854,24.795557 34.371738,17.905035 41.245220,10.929090 
	C45.861946,15.581542 50.147598,19.900362 54.893211,24.682697 
	C47.942154,31.609253 40.892731,39.603863 32.761642,46.281349 
	C29.278975,49.141418 23.662666,50.384785 18.261406,47.733791 
z"/>
<path fill="#FFFFFF" opacity="1.000000" stroke="none" 
	d="
M16.394569,14.000027 
	C10.985871,14.268683 8.719368,16.533087 8.907542,21.831589 
	C9.238379,31.147095 8.989231,40.482838 9.004214,49.810070 
	C9.012627,55.047558 10.874292,56.981533 15.959814,56.993443 
	C25.620134,57.016068 35.280571,57.012531 44.940910,56.994755 
	C49.827431,56.985764 51.910461,54.893791 51.983707,49.791031 
	C52.057514,44.649498 51.999962,39.506077 51.999962,32.925873 
	C54.230824,34.387848 56.784248,35.282200 56.788769,36.189266 
	C56.820641,42.580524 56.782230,49.041737 55.847538,55.344360 
	C55.197567,59.727100 51.522308,61.934944 47.061169,61.970203 
	C35.735920,62.059723 24.409168,62.049938 13.083682,61.976997 
	C8.090811,61.944839 4.064278,57.999374 4.027045,53.057384 
	C3.941720,41.732067 3.937732,30.405186 4.026286,19.079922 
	C4.070684,13.401747 8.501615,9.244580 14.681658,9.030641 
	C19.173347,8.875148 23.678419,9.112043 28.170650,8.964595 
	C31.736996,8.847538 32.453793,10.614730 31.716421,14.000002 
	C26.791182,14.000002 21.820356,14.000002 16.394569,14.000027 
z"/>
<path fill="#FFFFFF" opacity="1.000000" stroke="none" 
	d="
M61.465958,9.983597 
	C62.678371,14.966682 61.735096,19.001408 57.494072,21.769951 
	C53.080093,17.300873 48.645748,12.811172 44.210846,8.320903 
	C50.577942,1.839655 56.288570,2.280322 61.465958,9.983597 
z"/>
</svg>