<svg xmlns="http://www.w3.org/2000/svg" width="15" height="15" viewBox="0 0 15 15">
    <g fill="#8E8E93" fill-rule="evenodd">
        <path d="M6.82 6.881H2.06l1.029-1.088a.62.62 0 1 0-.903-.851L.181 7.062v.002l-.012.012c-.025.026-.036.058-.055.086-.024.035-.052.067-.068.107a.616.616 0 0 0 0 .466c.016.039.043.07.066.104.02.03.032.062.057.088l.011.012.001.001 2.005 2.119a.617.617 0 0 0 .878.024.62.62 0 0 0 .025-.876L2.06 8.122h4.76a.62.62 0 1 0 0-1.24z"/>
        <path d="M12.55.26a.592.592 0 0 0-.109-.01H7.203c-.046 0-.092.006-.089.01C5.76.341 4.7 1.572 4.7 3.063c0 .34.258.617.577.617.318 0 .576-.277.576-.617 0-.86.6-1.552 1.413-1.58l5.214.005c.765.023 1.366.715 1.366 1.575v8.874c0 .86-.6 1.552-1.408 1.583l-5.217-.006c-.766-.025-1.367-.717-1.367-1.577 0-.34-.258-.616-.577-.616-.319 0-.577.276-.577.616 0 1.532 1.093 2.765 2.446 2.802.045.01.084.011.113.011h5.237c.047 0 .088-.005.086-.008C13.938 14.66 15 13.429 15 11.937V3.063C14.999 1.533 13.907.3 12.55.26zm-.109.213zM7.257 13.741z"/>
    </g>
</svg>
