<svg xmlns="http://www.w3.org/2000/svg" width="15" height="15" viewBox="0 0 15 15">
    <g fill="none" fill-rule="evenodd">
        <path fill="#8E8E93" d="M6.588.371A1.204 1.204 0 0 0 5.706 0H1.237A1.24 1.24 0 0 0 0 1.237v4.438c0 .325.124.634.356.866l8.04 8.041c.248.248.558.356.882.356.31 0 .634-.124.866-.356l4.438-4.407a1.209 1.209 0 0 0 .016-1.732L6.588.371z"/>
        <path fill="#FFF" d="M3.093 1.856a1.24 1.24 0 0 0-1.237 1.237c0 .68.556 1.237 1.237 1.237A1.24 1.24 0 0 0 4.33 3.093a1.24 1.24 0 0 0-1.237-1.237zm0 1.855a.62.62 0 0 1-.619-.618.62.62 0 0 1 .619-.619.62.62 0 0 1 .618.619.62.62 0 0 1-.618.618z"/>
    </g>
</svg>
