<svg xmlns="http://www.w3.org/2000/svg" width="23" height="15" viewBox="0 0 23 15">
    <g fill="#8E8E93" fill-rule="evenodd">
        <circle cx="19.5" cy="3" r="3"/>
        <path d="M9.797 3H.834c-.52 0-.651.14-.53.492.071.206.394.38.587.478.515.272 7.678 4.177 7.945 4.317.267.141.539.207.96.207.423 0 .695-.066.962-.207.177-.093 3.404-1.85 5.698-3.098A3.732 3.732 0 0 1 15.75 3H9.797z"/>
        <path d="M12.994 8.31l3.853 4.337c.094.094.136.206.084.262-.056.052-.178.024-.276-.065l-4.622-3.9c-.699.45-1.19.76-1.275.806-.361.183-.614.206-.961.206s-.6-.023-.961-.206c-.09-.047-.577-.356-1.275-.806l-4.622 3.9c-.094.094-.22.122-.277.065-.056-.051-.014-.168.08-.262L6.591 8.31C4.308 6.834.82 4.378.436 4.18.023 3.971 0 4.22 0 4.411v9.61c0 .435.642.979 1.102.979h17.39c.46 0 1.008-.548 1.008-.98V6.75a3.737 3.737 0 0 1-2.617-1.065c-1.219.839-2.71 1.863-3.89 2.626z"/>
    </g>
</svg>
