<svg xmlns="http://www.w3.org/2000/svg" width="12" height="15" viewBox="0 0 12 15">
    <g fill="#8E8E93" fill-rule="evenodd">
        <path d="M8.45 7.45H6.4v-2.3c0-.35-.3-.6-.6-.6s-.6.3-.6.6V8.1c0 .35.3.6.6.6h2.65c.35 0 .6-.3.6-.6s-.25-.65-.6-.65z"/>
        <path d="M9.85 12.35c1.25-1.1 2.1-2.7 2.1-4.5 0-3.25-2.65-5.9-5.9-5.9a5.91 5.91 0 0 0-5.9 5.9c0 1.7.7 3.2 1.85 4.3l-1.05 1.8c-.2.3-.1.7.2.85.1.05.2.1.3.1.2 0 .4-.1.55-.3l1-1.65c.9.55 1.95.85 3.05.85 1 0 2-.25 2.8-.7l.9 1.5c.1.2.3.3.55.3.1 0 .2-.05.3-.1.3-.2.4-.55.2-.85l-.95-1.6zm-8.5-4.5C1.35 5.3 3.45 3.2 6 3.2c2.55 0 4.65 2.1 4.65 4.65 0 2.55-2.1 4.65-4.65 4.65-2.55 0-4.65-2.1-4.65-4.65zM7.95 1.35c1.05.3 2.05.9 2.8 1.7.1.1.3.2.45.2.15 0 .3-.05.45-.2.25-.25.25-.65 0-.9-.95-.95-2.1-1.6-3.35-2-.35-.1-.7.1-.8.4-.05.35.15.7.45.8zM.8 3.25c.15 0 .3-.05.45-.2.8-.8 1.75-1.35 2.8-1.7.35-.1.5-.45.4-.8-.1-.35-.45-.5-.8-.4-1.25.4-2.4 1.05-3.35 2-.25.25-.25.65 0 .9.15.15.3.2.5.2z"/>
    </g>
</svg>
