<svg version="1.1" id="Layer_1" xmlns="http://www.w3.org/2000/svg" xmlns:xlink="http://www.w3.org/1999/xlink" x="0px" y="0px"
	 width="100%" viewBox="0 0 128 128" enable-background="new 0 0 128 128" xml:space="preserve">
<path fill="#000000" opacity="1.000000" stroke="none" 
	d="
M92.000000,129.000000 
	C61.333332,129.000000 31.166666,129.000000 1.000000,129.000000 
	C1.000000,86.333336 1.000000,43.666668 1.000000,1.000000 
	C43.666668,1.000000 86.333336,1.000000 129.000000,1.000000 
	C129.000000,43.666668 129.000000,86.333336 129.000000,129.000000 
	C116.833336,129.000000 104.666664,129.000000 92.000000,129.000000 
M75.562408,43.952324 
	C66.893379,42.204990 58.224350,40.457657 48.999985,38.598389 
	C48.999985,36.300457 49.139584,33.000362 48.937614,29.721306 
	C48.844852,28.215317 48.330956,25.655846 47.573494,25.483463 
	C45.702438,25.057644 42.970119,24.997427 41.656303,26.085306 
	C31.579794,34.428974 21.664486,42.975529 11.900028,51.684341 
	C7.096628,55.968441 7.343634,58.411526 12.189896,62.678699 
	C17.476435,67.333542 22.760508,71.991852 28.096321,76.589859 
	C32.296810,80.209526 36.403366,83.979584 40.904213,87.188301 
	C42.628784,88.417778 45.345207,88.605751 47.579475,88.516098 
	C48.114868,88.494614 48.834789,85.487312 48.936405,83.820702 
	C49.147118,80.364799 48.999996,76.887077 48.999996,72.987564 
	C52.691830,73.347954 56.024944,73.799171 59.372604,73.977936 
	C72.605370,74.684570 84.623833,79.130157 95.146675,86.880348 
	C101.379242,91.470711 106.442780,97.619667 112.375938,102.663170 
	C114.098740,104.127655 116.986076,104.405174 119.401054,104.673424 
	C119.759636,104.713242 121.214584,101.504364 120.874588,100.113167 
	C118.980019,92.360779 117.868111,84.099777 114.294235,77.139397 
	C106.167976,61.312904 93.200523,50.261314 75.562408,43.952324 
z"/>
<path fill="#FFFFFF" opacity="1.000000" stroke="none" 
	d="
M75.969986,43.975208 
	C93.200523,50.261314 106.167976,61.312904 114.294235,77.139397 
	C117.868111,84.099777 118.980019,92.360779 120.874588,100.113167 
	C121.214584,101.504364 119.759636,104.713242 119.401054,104.673424 
	C116.986076,104.405174 114.098740,104.127655 112.375938,102.663170 
	C106.442780,97.619667 101.379242,91.470711 95.146675,86.880348 
	C84.623833,79.130157 72.605370,74.684570 59.372604,73.977936 
	C56.024944,73.799171 52.691830,73.347954 48.999996,72.987564 
	C48.999996,76.887077 49.147118,80.364799 48.936405,83.820702 
	C48.834789,85.487312 48.114868,88.494614 47.579475,88.516098 
	C45.345207,88.605751 42.628784,88.417778 40.904213,87.188301 
	C36.403366,83.979584 32.296810,80.209526 28.096321,76.589859 
	C22.760508,71.991852 17.476435,67.333542 12.189896,62.678699 
	C7.343634,58.411526 7.096628,55.968441 11.900028,51.684341 
	C21.664486,42.975529 31.579794,34.428974 41.656303,26.085306 
	C42.970119,24.997427 45.702438,25.057644 47.573494,25.483463 
	C48.330956,25.655846 48.844852,28.215317 48.937614,29.721306 
	C49.139584,33.000362 48.999985,36.300457 48.999985,38.598389 
	C58.224350,40.457657 66.893379,42.204990 75.969986,43.975208 
z"/>
</svg>